<svg width="15" height="15" viewBox="0 0 15 15" fill="none" xmlns="http://www.w3.org/2000/svg">
<path fill-rule="evenodd" clip-rule="evenodd" d="M9.26743 7.50016L14.6335 2.13402C15.1222 1.64528 15.1222 0.855295 14.6335 0.366555C14.1447 -0.122185 13.3548 -0.122185 12.866 0.366555L7.5 5.73269L2.13397 0.366555C1.64524 -0.122185 0.855277 -0.122185 0.366547 0.366555C-0.122182 0.855295 -0.122182 1.64528 0.366547 2.13402L5.73257 7.50016L0.366547 12.8663C-0.122182 13.355 -0.122182 14.145 0.366547 14.6338C0.610287 14.8775 0.930274 15 1.25026 15C1.57025 15 1.89023 14.8775 2.13397 14.6338L7.5 9.26762L12.866 14.6338C13.1098 14.8775 13.4298 15 13.7497 15C14.0697 15 14.3897 14.8775 14.6335 14.6338C15.1222 14.145 15.1222 13.355 14.6335 12.8663L9.26743 7.50016Z" fill="#151B50"/>
</svg>
