<svg width="24" height="24" viewBox="0 0 24 24" fill="none" xmlns="http://www.w3.org/2000/svg">
<path fill-rule="evenodd" clip-rule="evenodd" d="M2.66664 10.6666C2.66664 6.25463 6.25459 2.66663 10.6665 2.66663C15.0785 2.66663 18.6664 6.25463 18.6664 10.6666C18.6664 15.0786 15.0785 18.6666 10.6665 18.6666C6.25459 18.6666 2.66664 15.0786 2.66664 10.6666ZM23.609 21.724L19.0824 17.196C20.4864 15.3907 21.333 13.128 21.333 10.6667C21.333 4.78533 16.5478 0 10.6665 0C4.78527 0 0 4.78533 0 10.6667C0 16.548 4.78527 21.3333 10.6665 21.3333C13.1278 21.3333 15.3905 20.4867 17.1958 19.0827L21.7237 23.6093C21.9837 23.8693 22.325 24 22.6664 24C23.0077 24 23.349 23.8693 23.609 23.6093C24.1303 23.088 24.1303 22.2453 23.609 21.724Z" fill="#343C44"/>
</svg>
